<svg xmlns="http://www.w3.org/2000/svg" width="39.061" height="39.061" viewBox="0 0 39.061 39.061"><defs><style>.a{fill:none;stroke:#fff;}.b{fill:#fff;}.c{fill:#3851a3;}</style></defs><g transform="translate(0.5 0.5)"><rect class="a" width="38.061" height="38.061" rx="19.03"/><g transform="translate(-90.947 -290.28)"><path class="b" d="M124.572,301.931a3.828,3.828,0,0,0-2.693-2.71c-2.376-.641-11.9-.641-11.9-.641s-9.526,0-11.9.641a3.828,3.828,0,0,0-2.694,2.71,43.13,43.13,0,0,0,0,14.759,3.831,3.831,0,0,0,2.694,2.711c2.375.64,11.9.64,11.9.64s9.525,0,11.9-.64a3.831,3.831,0,0,0,2.693-2.711,43.13,43.13,0,0,0,0-14.759Z"/><path class="c" d="M106.862,313.84v-9.058l7.962,4.529Z"/></g></g></svg>