<svg xmlns="http://www.w3.org/2000/svg" width="52.9" height="39.25" viewBox="0 0 52.9 39.25"><defs><style>.a,.b{fill:#d5d5d5;}.b{stroke:#f8f8f8;stroke-width:3px;}.c{fill:#fff;}</style></defs><g transform="translate(-436.1 -209.75)"><path class="a" d="M0,0V4.5H36V0ZM0,9v4.5H27V9Zm0,9v4.5H36V18Zm0,9v4.5H27V27Z" transform="translate(453 217.5)"/><path class="b" d="M18,3A15,15,0,1,0,33,18,15.005,15.005,0,0,0,18,3Z" transform="translate(434.6 208.25)"/><path class="c" d="M2320.1-13218.461h-2.206v-8.314h2.206v8.313Zm-1.1-9.222a1.155,1.155,0,0,1-1.182-1.152,1.153,1.153,0,0,1,1.182-1.146,1.16,1.16,0,0,1,1.2,1.146A1.162,1.162,0,0,1,2318.994-13227.683Z" transform="translate(-1866.8 13450.25)"/></g></svg>