<svg xmlns="http://www.w3.org/2000/svg" width="42" height="42" viewBox="0 0 42 42"><defs><style>.a,.b,.c{fill:#fff;}.b,.c{stroke:#3851a3;stroke-width:1.5px;}.c{stroke-linecap:round;stroke-linejoin:round;}</style></defs><g transform="translate(-650 -2644)"><circle class="a" cx="21" cy="21" r="21" transform="translate(650 2644)"/><g transform="translate(658.724 2654.941)"><path class="b" d="M0,7.683A8.7,8.7,0,0,1,.567,4.448a6.942,6.942,0,0,1,1.58-2.422A6.725,6.725,0,0,1,4.54.515,8.559,8.559,0,0,1,7.557,0a7.813,7.813,0,0,1,4.2,1.042,7.9,7.9,0,0,1,2.771,3.137q.343.607.653,1.305t.584,1.454q.275.756.532,1.54t.509,1.574l.315,1.019q.166.538.292,1a3.566,3.566,0,0,1,.137.727.959.959,0,0,1-.269.761,1.125,1.125,0,0,1-.773.315,1.226,1.226,0,0,1-.9-.315,3.419,3.419,0,0,1-.733-1.093c-1.588-3.374-2.454,8.854-2.691,9.091a1.183,1.183,0,0,1-.87.355,1.151,1.151,0,0,1-.853-.355,1.179,1.179,0,0,1-.349-.859V12.468a4.1,4.1,0,0,1-.447.143q-.24.063-.481.12v9.526a1.156,1.156,0,0,1-.355.847,1.17,1.17,0,0,1-.859.355,1.151,1.151,0,0,1-.853-.355,1.166,1.166,0,0,1-.349-.847V12.846q-.252-.023-.5-.057t-.487-.08v8.633a1.151,1.151,0,0,1-.355.853,1.179,1.179,0,0,1-.859.349,1.192,1.192,0,0,1-1.2-1.2V11.976a4.673,4.673,0,0,1-.5-.252q-.235-.137-.441-.286v6.526a1.17,1.17,0,0,1-.355.859,1.17,1.17,0,0,1-.859.355,1.17,1.17,0,0,1-.859-.355A1.17,1.17,0,0,1,0,17.964Z" transform="translate(0.191 20.566) rotate(-90)"/><path class="c" d="M1170.688,4433.941h2.825s1.19,1.751,2.3,1.751,2.146-1.751,2.146-1.751h2.6v14.13h-9.868Z" transform="translate(-1160.203 -4433.941)"/></g></g></svg>