<svg xmlns="http://www.w3.org/2000/svg" width="242.442" height="55.491" viewBox="0 0 242.442 55.491"><defs><style>.a,.b{fill:#fff;}.b{stroke:#fff;}</style></defs><g transform="translate(-203.154 -2795)"><path class="a" d="M26.348,58.691a3.148,3.148,0,0,0,.824-.145,5.96,5.96,0,0,0,1.027-.4q5.9-3.239,9.933-5.783a38.9,38.9,0,0,0,6.477-4.945,15.168,15.168,0,0,0,3.557-5.191A17.53,17.53,0,0,0,49.279,35.7V14.911a4.98,4.98,0,0,0-.94-3.383,8,8,0,0,0-2.848-1.851q-1.186-.492-3.441-1.33T37.207,6.582q-2.588-.925-4.844-1.721t-3.441-1.2a8.843,8.843,0,0,0-1.258-.333,6.992,6.992,0,0,0-1.316-.13,5.823,5.823,0,0,0-1.359.159l-1.272.3Q22.56,4.009,20.3,4.79T15.461,6.525q-2.588.954-4.858,1.807T7.176,9.677a7.953,7.953,0,0,0-2.848,1.836,4.934,4.934,0,0,0-.969,3.4V35.7a17.416,17.416,0,0,0,1.113,6.506,15.038,15.038,0,0,0,3.586,5.176,40.082,40.082,0,0,0,6.506,4.945q4.034,2.545,9.875,5.812a5.96,5.96,0,0,0,1.027.4A3.275,3.275,0,0,0,26.348,58.691Zm0-5.436a1.965,1.965,0,0,1-.694-.13,7.17,7.17,0,0,1-.954-.477q-4.713-2.863-7.894-4.916a33.935,33.935,0,0,1-5.075-3.875A10.952,10.952,0,0,1,9.013,39.88a14.551,14.551,0,0,1-.824-5.191V15.749a2.253,2.253,0,0,1,.188-1.041,1.427,1.427,0,0,1,.766-.578q1.215-.492,2.819-1.084t3.412-1.229q1.807-.636,3.586-1.272l3.354-1.2q1.576-.564,2.733-1.027a6.909,6.909,0,0,1,.708-.217,2.289,2.289,0,0,1,1.142,0,6.4,6.4,0,0,1,.723.217q1.157.463,2.718,1.055t3.34,1.229l3.557,1.272q1.778.636,3.4,1.229T43.5,14.13a1.239,1.239,0,0,1,.781.564,2.52,2.52,0,0,1,.174,1.055V34.69a14.645,14.645,0,0,1-.824,5.219A11.006,11.006,0,0,1,40.893,43.9,32.772,32.772,0,0,1,35.8,47.76q-3.181,2.024-7.865,4.887a5.735,5.735,0,0,1-.94.477A1.945,1.945,0,0,1,26.348,53.254Zm-3.007-10.7A2.66,2.66,0,0,0,25.683,41.2l12.434-19.4q.231-.434.448-.9a2.164,2.164,0,0,0,.217-.925,1.891,1.891,0,0,0-.737-1.547,2.546,2.546,0,0,0-1.634-.593,2.417,2.417,0,0,0-2.053,1.33l-11.1,17.755-5.205-6.709a3.046,3.046,0,0,0-1-.853,2.449,2.449,0,0,0-1.084-.246,2.167,2.167,0,0,0-1.634.68,2.278,2.278,0,0,0-.651,1.634,2.925,2.925,0,0,0,.694,1.793L20.912,41.2a3.729,3.729,0,0,0,1.128,1.041A2.655,2.655,0,0,0,23.341,42.555Z" transform="translate(199.795 2791.801)"/><path class="b" d="M4.416,0A1.97,1.97,0,0,1,2.96-.56,1.89,1.89,0,0,1,2.4-1.952v-18.5a1.89,1.89,0,0,1,.56-1.392,1.89,1.89,0,0,1,1.392-.56h10.4a1.951,1.951,0,0,1,1.392.528,1.786,1.786,0,0,1,.56,1.36,1.694,1.694,0,0,1-.56,1.248,1.919,1.919,0,0,1-1.392.544H6.112L6.4-19.1v6.432l-.224-.416h7.136a1.951,1.951,0,0,1,1.392.528,1.786,1.786,0,0,1,.56,1.36,1.694,1.694,0,0,1-.56,1.248,1.919,1.919,0,0,1-1.392.544h-7.2L6.4-9.7v7.744A1.838,1.838,0,0,1,5.808-.56,1.96,1.96,0,0,1,4.416,0ZM33.28-17.44a1.865,1.865,0,0,1,1.376.544,1.905,1.905,0,0,1,.544,1.408V-1.952A1.919,1.919,0,0,1,34.656-.56,1.837,1.837,0,0,1,33.28,0,1.837,1.837,0,0,1,31.9-.56a1.919,1.919,0,0,1-.544-1.392V-3.52l.7.288a1.8,1.8,0,0,1-.448,1.008A6.1,6.1,0,0,1,30.4-1.056a7.455,7.455,0,0,1-1.808.976,6.232,6.232,0,0,1-2.256.4,7.316,7.316,0,0,1-4-1.136A7.991,7.991,0,0,1,19.5-3.952a9.81,9.81,0,0,1-1.04-4.592,9.882,9.882,0,0,1,1.04-4.624A8.08,8.08,0,0,1,22.3-16.3a7.049,7.049,0,0,1,3.9-1.136,7.394,7.394,0,0,1,2.528.416,7.554,7.554,0,0,1,2,1.056,6.051,6.051,0,0,1,1.312,1.3,2.061,2.061,0,0,1,.464,1.1l-1.152.416v-2.336A1.919,1.919,0,0,1,31.9-16.88,1.837,1.837,0,0,1,33.28-17.44ZM26.816-3.2a4.338,4.338,0,0,0,2.464-.7,4.754,4.754,0,0,0,1.648-1.92,6.132,6.132,0,0,0,.592-2.72,6.207,6.207,0,0,0-.592-2.752,4.754,4.754,0,0,0-1.648-1.92,4.338,4.338,0,0,0-2.464-.7,4.282,4.282,0,0,0-2.432.7,4.754,4.754,0,0,0-1.648,1.92,6.207,6.207,0,0,0-.592,2.752,6.132,6.132,0,0,0,.592,2.72A4.754,4.754,0,0,0,24.384-3.9,4.282,4.282,0,0,0,26.816-3.2Zm21.7-14.24a5.634,5.634,0,0,1,3.6.992,5.042,5.042,0,0,1,1.7,2.64,13.5,13.5,0,0,1,.464,3.664v8.192A1.919,1.919,0,0,1,53.728-.56,1.837,1.837,0,0,1,52.352,0a1.837,1.837,0,0,1-1.376-.56,1.919,1.919,0,0,1-.544-1.392v-8.192a6.218,6.218,0,0,0-.272-1.9,2.63,2.63,0,0,0-.976-1.36,3.39,3.39,0,0,0-2.016-.512,4.232,4.232,0,0,0-2.16.512,3.5,3.5,0,0,0-1.344,1.36,3.9,3.9,0,0,0-.464,1.9v8.192A1.919,1.919,0,0,1,42.656-.56,1.837,1.837,0,0,1,41.28,0,1.837,1.837,0,0,1,39.9-.56a1.919,1.919,0,0,1-.544-1.392V-15.168A1.919,1.919,0,0,1,39.9-16.56a1.837,1.837,0,0,1,1.376-.56,1.837,1.837,0,0,1,1.376.56,1.919,1.919,0,0,1,.544,1.392v1.376l-.48-.1a6.329,6.329,0,0,1,.832-1.168,7.983,7.983,0,0,1,1.28-1.168A6.507,6.507,0,0,1,46.5-17.1,5.879,5.879,0,0,1,48.512-17.44ZM68-22.4a5.565,5.565,0,0,1,3.12.96,7.177,7.177,0,0,1,2.352,2.592,7.453,7.453,0,0,1,.9,3.648,7.388,7.388,0,0,1-.9,3.616A7.316,7.316,0,0,1,71.12-8.976,5.5,5.5,0,0,1,68-8H62.112l.32-.576v6.624A1.985,1.985,0,0,1,61.92-.56,1.735,1.735,0,0,1,60.576,0a1.7,1.7,0,0,1-1.312-.56,1.985,1.985,0,0,1-.512-1.392v-18.5a1.89,1.89,0,0,1,.56-1.392A1.89,1.89,0,0,1,60.7-22.4Zm0,10.752a1.777,1.777,0,0,0,1.184-.512,4.058,4.058,0,0,0,.96-1.328,3.973,3.973,0,0,0,.384-1.712,3.941,3.941,0,0,0-.384-1.728,3.915,3.915,0,0,0-.96-1.3A1.806,1.806,0,0,0,68-18.72H62.048l.384-.576v8.16l-.352-.512ZM79.648,0a1.837,1.837,0,0,1-1.376-.56,1.919,1.919,0,0,1-.544-1.392V-15.168a1.919,1.919,0,0,1,.544-1.392,1.837,1.837,0,0,1,1.376-.56,1.837,1.837,0,0,1,1.376.56,1.919,1.919,0,0,1,.544,1.392v3.008L81.344-14.3a4.985,4.985,0,0,1,.912-1.36,5.41,5.41,0,0,1,1.264-.992,5.74,5.74,0,0,1,1.5-.592,6.835,6.835,0,0,1,1.6-.192,2.447,2.447,0,0,1,1.616.544,1.622,1.622,0,0,1,.656,1.28,1.9,1.9,0,0,1-.544,1.52,1.788,1.788,0,0,1-1.184.464,2.652,2.652,0,0,1-1.1-.224,2.733,2.733,0,0,0-1.136-.224,2.782,2.782,0,0,0-1.168.272,3.217,3.217,0,0,0-1.088.848,4.466,4.466,0,0,0-.8,1.424,5.93,5.93,0,0,0-.3,2v7.584A1.919,1.919,0,0,1,81.024-.56,1.837,1.837,0,0,1,79.648,0ZM107.36-8.544a9,9,0,0,1-1.168,4.624A8.384,8.384,0,0,1,103.056-.8a8.737,8.737,0,0,1-4.4,1.12,8.737,8.737,0,0,1-4.4-1.12A8.384,8.384,0,0,1,91.12-3.92a9,9,0,0,1-1.168-4.624,9,9,0,0,1,1.168-4.624A8.505,8.505,0,0,1,94.256-16.3a8.641,8.641,0,0,1,4.4-1.136,8.641,8.641,0,0,1,4.4,1.136,8.505,8.505,0,0,1,3.136,3.136A9,9,0,0,1,107.36-8.544Zm-3.84,0a5.816,5.816,0,0,0-.656-2.832,4.882,4.882,0,0,0-1.76-1.872,4.617,4.617,0,0,0-2.448-.672,4.617,4.617,0,0,0-2.448.672,4.882,4.882,0,0,0-1.76,1.872,5.816,5.816,0,0,0-.656,2.832,5.747,5.747,0,0,0,.656,2.8,4.883,4.883,0,0,0,1.76,1.872,4.617,4.617,0,0,0,2.448.672,4.617,4.617,0,0,0,2.448-.672,4.882,4.882,0,0,0,1.76-1.872A5.747,5.747,0,0,0,103.52-8.544Zm7.232-8.256h7.584a1.737,1.737,0,0,1,1.28.512,1.737,1.737,0,0,1,.512,1.28,1.646,1.646,0,0,1-.512,1.232,1.766,1.766,0,0,1-1.28.5h-7.584a1.737,1.737,0,0,1-1.28-.512,1.737,1.737,0,0,1-.512-1.28,1.646,1.646,0,0,1,.512-1.232A1.766,1.766,0,0,1,110.752-16.8Zm3.424-4a1.786,1.786,0,0,1,1.36.56,1.951,1.951,0,0,1,.528,1.392v14.24a1.393,1.393,0,0,0,.176.736,1.011,1.011,0,0,0,.48.416,1.673,1.673,0,0,0,.656.128,1.7,1.7,0,0,0,.7-.144,1.777,1.777,0,0,1,.736-.144,1.078,1.078,0,0,1,.816.416A1.679,1.679,0,0,1,120-2.048a1.691,1.691,0,0,1-.976,1.472,4.054,4.054,0,0,1-2.1.576,11.021,11.021,0,0,1-1.488-.112A4.02,4.02,0,0,1,113.9-.656a3.327,3.327,0,0,1-1.2-1.328,5.264,5.264,0,0,1-.48-2.464v-14.4a1.89,1.89,0,0,1,.56-1.392A1.89,1.89,0,0,1,114.176-20.8ZM131.392.32a9.4,9.4,0,0,1-4.72-1.136A7.845,7.845,0,0,1,123.6-3.9a9.021,9.021,0,0,1-1.072-4.416,9.7,9.7,0,0,1,1.168-4.912,8.261,8.261,0,0,1,3.056-3.12,7.888,7.888,0,0,1,4-1.088,7.281,7.281,0,0,1,3.088.672,8.441,8.441,0,0,1,2.576,1.84,8.945,8.945,0,0,1,1.776,2.7,8.223,8.223,0,0,1,.656,3.264,1.643,1.643,0,0,1-.608,1.248,2.036,2.036,0,0,1-1.344.48H124.672l-.96-3.2h11.744l-.7.64v-.864a2.918,2.918,0,0,0-.656-1.664,4.284,4.284,0,0,0-1.472-1.168,4.192,4.192,0,0,0-1.872-.432,6.064,6.064,0,0,0-1.792.256,3.433,3.433,0,0,0-1.44.864,4.193,4.193,0,0,0-.96,1.632,8.089,8.089,0,0,0-.352,2.592,5.6,5.6,0,0,0,.72,2.928,4.906,4.906,0,0,0,1.856,1.824A4.943,4.943,0,0,0,131.2-3.2a7.437,7.437,0,0,0,1.888-.192,4.244,4.244,0,0,0,1.136-.464q.432-.272.784-.464a2.441,2.441,0,0,1,1.088-.288,1.556,1.556,0,0,1,1.168.48,1.561,1.561,0,0,1,.464,1.12,2,2,0,0,1-.9,1.568A7.423,7.423,0,0,1,134.5-.208,9.3,9.3,0,0,1,131.392.32ZM149.5-17.44a11.779,11.779,0,0,1,3.184.384,5.166,5.166,0,0,1,2.112,1.072,2.158,2.158,0,0,1,.752,1.648,2.083,2.083,0,0,1-.384,1.2,1.273,1.273,0,0,1-1.12.56,2.163,2.163,0,0,1-.848-.144,2.218,2.218,0,0,1-.592-.368A3.37,3.37,0,0,0,152-13.5a2.924,2.924,0,0,0-.976-.3,6.418,6.418,0,0,0-.976-.112,5.156,5.156,0,0,0-2.768.7,4.692,4.692,0,0,0-1.744,1.9,6.044,6.044,0,0,0-.608,2.768,5.843,5.843,0,0,0,.624,2.736,4.885,4.885,0,0,0,1.728,1.9,4.629,4.629,0,0,0,2.544.7,8.5,8.5,0,0,0,1.376-.1,3.412,3.412,0,0,0,.96-.288,5.822,5.822,0,0,0,.8-.544,1.641,1.641,0,0,1,1.056-.288,1.586,1.586,0,0,1,1.28.528,1.935,1.935,0,0,1,.448,1.3,1.832,1.832,0,0,1-.9,1.456A7.194,7.194,0,0,1,152.5-.08a11.863,11.863,0,0,1-3.152.4A8.058,8.058,0,0,1,144.96-.848,7.807,7.807,0,0,1,142.1-4.032a9.948,9.948,0,0,1-1.008-4.512,9.639,9.639,0,0,1,1.072-4.624,7.949,7.949,0,0,1,2.976-3.136A8.36,8.36,0,0,1,149.5-17.44Zm9.216.64H166.3a1.737,1.737,0,0,1,1.28.512,1.737,1.737,0,0,1,.512,1.28,1.646,1.646,0,0,1-.512,1.232,1.766,1.766,0,0,1-1.28.5H158.72a1.737,1.737,0,0,1-1.28-.512,1.737,1.737,0,0,1-.512-1.28,1.646,1.646,0,0,1,.512-1.232A1.766,1.766,0,0,1,158.72-16.8Zm3.424-4a1.786,1.786,0,0,1,1.36.56,1.951,1.951,0,0,1,.528,1.392v14.24a1.393,1.393,0,0,0,.176.736,1.011,1.011,0,0,0,.48.416,1.673,1.673,0,0,0,.656.128,1.7,1.7,0,0,0,.7-.144,1.777,1.777,0,0,1,.736-.144,1.078,1.078,0,0,1,.816.416,1.679,1.679,0,0,1,.368,1.152,1.691,1.691,0,0,1-.976,1.472A4.054,4.054,0,0,1,164.9,0a11.021,11.021,0,0,1-1.488-.112,4.02,4.02,0,0,1-1.536-.544,3.327,3.327,0,0,1-1.2-1.328,5.264,5.264,0,0,1-.48-2.464v-14.4a1.89,1.89,0,0,1,.56-1.392A1.89,1.89,0,0,1,162.144-20.8Z" transform="translate(277 2826.5)"/></g></svg>