<svg xmlns="http://www.w3.org/2000/svg" width="212" height="44" viewBox="0 0 212 44"><defs><style>.a,.b{fill:#fff;}.a{font-size:16px;font-family:SourceSansPro-Semibold, Source Sans Pro;font-weight:600;}.c{fill:#3851a3;}</style></defs><g transform="translate(-206 -2929)"><text class="a" transform="translate(276 2945)"><tspan x="0" y="0">Customer service all </tspan><tspan x="0" y="22">the way to your seat</tspan></text><g transform="translate(-444 286)"><circle class="b" cx="21" cy="21" r="21" transform="translate(650 2644)"/><path class="c" d="M9.542,12.856a1.08,1.08,0,0,0,.82-.373,1.36,1.36,0,0,0,.345-.961,1.376,1.376,0,0,0-.345-.972,1.08,1.08,0,0,0-.82-.373,1.045,1.045,0,0,0-.808.373,1.4,1.4,0,0,0-.334.972,1.388,1.388,0,0,0,.334.961A1.045,1.045,0,0,0,9.542,12.856Zm6.241,0a1.08,1.08,0,0,0,.82-.373,1.36,1.36,0,0,0,.345-.961,1.376,1.376,0,0,0-.345-.972,1.08,1.08,0,0,0-.82-.373,1.062,1.062,0,0,0-.814.373,1.39,1.39,0,0,0-.339.972,1.374,1.374,0,0,0,.339.961A1.062,1.062,0,0,0,15.784,12.856ZM8.9,16.926a1.466,1.466,0,0,0,.469.882,4.139,4.139,0,0,0,1.312.921,4.485,4.485,0,0,0,1.95.4,4.541,4.541,0,0,0,1.973-.4,4.139,4.139,0,0,0,1.312-.921,1.466,1.466,0,0,0,.469-.882.279.279,0,0,0-.158-.271.362.362,0,0,0-.339.011,11.211,11.211,0,0,1-1.334.611,5.368,5.368,0,0,1-1.922.294,5.183,5.183,0,0,1-1.911-.3q-.746-.3-1.334-.6a.351.351,0,0,0-.334-.011A.28.28,0,0,0,8.9,16.926Zm3.742,7.892a10.548,10.548,0,0,0,4.251-.865,11.261,11.261,0,0,0,5.879-5.879,10.568,10.568,0,0,0,.859-4.246,10.568,10.568,0,0,0-.859-4.246A11.266,11.266,0,0,0,16.88,3.7a10.89,10.89,0,0,0-8.48,0A11.266,11.266,0,0,0,2.51,9.582a10.568,10.568,0,0,0-.859,4.246,10.508,10.508,0,0,0,.865,4.246A11.3,11.3,0,0,0,8.4,23.953,10.521,10.521,0,0,0,12.64,24.818Zm0-2.024a8.773,8.773,0,0,1-3.482-.7,8.944,8.944,0,0,1-4.771-4.777,9.165,9.165,0,0,1,0-6.976A8.979,8.979,0,0,1,9.152,5.557a8.732,8.732,0,0,1,3.477-.7,8.789,8.789,0,0,1,3.5.7,9.035,9.035,0,0,1,4.783,4.788,8.773,8.773,0,0,1,.7,3.482,8.605,8.605,0,0,1-.69,3.494,9.115,9.115,0,0,1-1.922,2.855A8.923,8.923,0,0,1,16.145,22.1,8.83,8.83,0,0,1,12.64,22.794Z" transform="translate(658 2651)"/></g></g></svg>