<svg xmlns="http://www.w3.org/2000/svg" width="40.491" height="46.069" viewBox="0 0 40.491 46.069"><defs><style>.a{fill:#d5d5d5;}</style></defs><g transform="translate(5.399)"><path class="a" d="M105.847,0A14.84,14.84,0,0,0,93.778,23.485L104.71,40.543a1.349,1.349,0,0,0,2.272,0l10.979-17.116A14.846,14.846,0,0,0,105.847,0Zm0,21.6a6.748,6.748,0,1,1,6.748-6.748A6.756,6.756,0,0,1,105.847,21.6Z" transform="translate(-91)"/></g><g transform="translate(0 31.015)"><path class="a" d="M61.8,344.695,55,355.32a4.462,4.462,0,0,1-7.512,0L40.682,344.7C34.692,346.083,31,348.619,31,351.651c0,5.26,10.431,8.1,20.245,8.1s20.245-2.838,20.245-8.1C71.491,348.617,67.793,346.079,61.8,344.695Z" transform="translate(-31 -344.695)"/></g></svg>