<svg xmlns="http://www.w3.org/2000/svg" width="20.51" height="20.704" viewBox="0 0 20.51 20.704"><defs><style>.a{fill:#3851a3;}</style></defs><path class="a" d="M10.548,18.148a6.179,6.179,0,0,0,2.471-.5,6.36,6.36,0,0,0,2.03-1.384,6.611,6.611,0,0,0,1.373-2.036,6.11,6.11,0,0,0,.5-2.454,6.179,6.179,0,0,0-.5-2.471,6.453,6.453,0,0,0-1.373-2.03A6.534,6.534,0,0,0,13.019,5.9a6.3,6.3,0,0,0-4.936,0A6.479,6.479,0,0,0,4.674,9.305a6.179,6.179,0,0,0-.5,2.471,6.11,6.11,0,0,0,.5,2.454,6.611,6.611,0,0,0,1.373,2.036A6.343,6.343,0,0,0,8.083,17.65,6.192,6.192,0,0,0,10.548,18.148Zm0,2.048a8.167,8.167,0,0,1-3.266-.658,8.547,8.547,0,0,1-4.5-4.5,8.188,8.188,0,0,1-.652-3.26A8.217,8.217,0,0,1,2.781,8.5,8.438,8.438,0,0,1,4.6,5.822,8.633,8.633,0,0,1,7.288,4a8.126,8.126,0,0,1,3.26-.658A8.167,8.167,0,0,1,13.814,4a8.532,8.532,0,0,1,4.5,4.507,8.491,8.491,0,0,1,0,6.526,8.547,8.547,0,0,1-4.5,4.5A8.167,8.167,0,0,1,10.548,20.2ZM21.232,24.05a1.464,1.464,0,0,1-.538-.1,1.357,1.357,0,0,1-.469-.309l-5.7-5.685,2.048-2,5.662,5.674a1.29,1.29,0,0,1,.3.469,1.54,1.54,0,0,1,.1.538,1.463,1.463,0,0,1-.177.721,1.329,1.329,0,0,1-.5.509A1.415,1.415,0,0,1,21.232,24.05Z" transform="translate(-2.129 -3.346)"/></svg>