<svg xmlns="http://www.w3.org/2000/svg" xmlns:xlink="http://www.w3.org/1999/xlink" width="445" height="385" viewBox="0 0 445 385"><defs><style>.a{fill:url(#a);}.b,.d{fill:#fff;}.b{stroke:#1880e7;}.c{fill:#1880e7;font-size:15px;font-family:SourceSansPro-Semibold, Source Sans Pro;font-weight:600;}.d{opacity:0.2;}.e{stroke:none;}.f{fill:none;}</style><linearGradient id="a" x1="1.028" y1="-0.039" x2="0.028" y2="0.963" gradientUnits="objectBoundingBox"><stop offset="0" stop-color="#1880e7"/><stop offset="0.631" stop-color="#3851a3"/><stop offset="1" stop-color="#213c93"/></linearGradient></defs><g transform="translate(-340 -994)"><path class="a" d="M5,0H445a0,0,0,0,1,0,0V385a0,0,0,0,1,0,0H5a5,5,0,0,1-5-5V5A5,5,0,0,1,5,0Z" transform="translate(340 994)"/><g transform="translate(497 1173)"><g class="b"><rect class="e" width="132" height="50" rx="10"/><rect class="f" x="0.5" y="0.5" width="131" height="49" rx="9.5"/></g><text class="c" transform="translate(66 29.263)"><tspan x="-43.733" y="0">Resell Tickets</tspan></text></g><path class="d" d="M-849.75-165.764h7.917v-16.9h6.453l9.314,16.9h8.848l-10.312-18.1c5.189-1.8,8.582-5.855,8.582-12.441,0-9.78-6.986-12.973-16.1-12.973h-14.7Zm7.917-23.219v-13.971h5.988c5.921,0,9.115,1.73,9.115,6.653,0,4.857-3.193,7.318-9.115,7.318Zm44.175,24.017a19.006,19.006,0,0,0,11.31-3.46l-2.661-4.923a13.72,13.72,0,0,1-7.584,2.262c-5.189,0-8.649-3.193-9.447-8.649h20.624a17.59,17.59,0,0,0,.4-3.992c0-9.181-4.79-15.568-13.639-15.568-7.651,0-15.1,6.52-15.1,17.165C-813.758-171.22-806.706-164.966-797.658-164.966Zm-8.383-20.624c.665-4.923,3.859-7.584,7.584-7.584,4.258,0,6.52,2.794,6.52,7.584Zm37.389,20.624c8.316,0,12.84-4.524,12.84-10.179s-4.457-8.25-9.514-9.979c-4.125-1.4-6.453-2.329-6.453-4.724,0-1.929,1.464-3.526,4.724-3.526a11.918,11.918,0,0,1,7.318,2.528l3.393-4.457a16.523,16.523,0,0,0-10.911-3.992c-7.318,0-11.975,4.125-11.975,9.846,0,5.189,4.391,7.917,9.115,9.647,3.659,1.331,6.852,2.4,6.852,5.123,0,2.2-1.663,3.792-5.123,3.792a13.969,13.969,0,0,1-9.181-3.326l-3.46,4.457A18.227,18.227,0,0,0-768.651-164.966Zm33.531,0a19.007,19.007,0,0,0,11.31-3.46l-2.661-4.923a13.72,13.72,0,0,1-7.584,2.262c-5.189,0-8.649-3.193-9.447-8.649h20.624a17.593,17.593,0,0,0,.4-3.992c0-9.181-4.79-15.568-13.638-15.568-7.651,0-15.1,6.52-15.1,17.165C-751.22-171.22-744.168-164.966-735.12-164.966ZM-743.5-185.59c.665-4.923,3.859-7.584,7.584-7.584,4.258,0,6.52,2.794,6.52,7.584Zm35.793,20.624a9.327,9.327,0,0,0,4.125-.732l-.931-5.788a4.1,4.1,0,0,1-1.2.133c-.8,0-1.663-.665-1.663-2.595v-38.787h-7.917v38.387C-715.294-168.558-713.232-164.966-707.71-164.966Zm18.1,0a9.327,9.327,0,0,0,4.125-.732l-.931-5.788a4.1,4.1,0,0,1-1.2.133c-.8,0-1.663-.665-1.663-2.595v-38.787H-697.2v38.387C-697.2-168.558-695.136-164.966-689.614-164.966Zm33.265-.8h7.917v-36.857h12.507v-6.653h-32.932v6.653h12.508Zm26.944,0h7.917V-198.5h-7.917Zm3.992-38.321a4.37,4.37,0,0,0,4.724-4.457A4.37,4.37,0,0,0-625.413-213a4.37,4.37,0,0,0-4.724,4.457A4.37,4.37,0,0,0-625.413-204.085Zm27.21,39.119a16.261,16.261,0,0,0,10.711-3.992l-3.193-4.99a10.542,10.542,0,0,1-6.719,2.595c-4.99,0-8.516-4.258-8.516-10.711,0-6.52,3.593-10.778,8.782-10.778a7.7,7.7,0,0,1,5.389,2.129l3.792-4.923a13.892,13.892,0,0,0-9.58-3.659c-8.782,0-16.5,6.32-16.5,17.231C-614.037-171.22-607.118-164.966-598.2-164.966Zm17.031-.8h7.784v-8.383l4.99-5.655,8.316,14.038h8.516l-12.241-19.293L-552.7-198.5h-8.649l-11.776,14.769h-.266v-29.007h-7.784Zm47.236.8a19.007,19.007,0,0,0,11.31-3.46l-2.661-4.923a13.72,13.72,0,0,1-7.584,2.262c-5.189,0-8.649-3.193-9.447-8.649h20.624a17.59,17.59,0,0,0,.4-3.992c0-9.181-4.79-15.568-13.638-15.568-7.651,0-15.1,6.52-15.1,17.165C-550.036-171.22-542.984-164.966-533.936-164.966Zm-8.383-20.624c.665-4.923,3.859-7.584,7.584-7.584,4.258,0,6.52,2.794,6.52,7.584Zm39.186,20.624a16.575,16.575,0,0,0,6.786-1.4l-1.4-5.522a8.8,8.8,0,0,1-3.393.665c-3.06,0-4.591-1.863-4.591-5.655v-15.368h8.316V-198.5h-8.316v-10.179h-6.52l-.931,10.179-5.056.4v5.855h4.657v15.368C-513.578-169.756-510.784-164.966-503.133-164.966Zm21.023,0c8.316,0,12.84-4.524,12.84-10.179s-4.457-8.25-9.514-9.979c-4.125-1.4-6.453-2.329-6.453-4.724,0-1.929,1.464-3.526,4.724-3.526a11.918,11.918,0,0,1,7.318,2.528l3.393-4.457a16.523,16.523,0,0,0-10.911-3.992c-7.318,0-11.975,4.125-11.975,9.846,0,5.189,4.391,7.917,9.115,9.647,3.659,1.331,6.852,2.4,6.852,5.123,0,2.2-1.663,3.792-5.123,3.792a13.968,13.968,0,0,1-9.181-3.326l-3.46,4.457A18.226,18.226,0,0,0-482.109-164.966Z" transform="translate(1221.109 1376)"/><path class="d" d="M-849.75-179.964h5.537v-11.819h4.513l6.514,11.819H-827l-7.212-12.656c3.629-1.256,6-4.095,6-8.7,0-6.84-4.886-9.073-11.26-9.073H-849.75Zm5.537-16.239v-9.771h4.188c4.141,0,6.375,1.21,6.375,4.653,0,3.4-2.234,5.118-6.375,5.118Zm30.9,16.8a13.293,13.293,0,0,0,7.91-2.42l-1.861-3.443a9.6,9.6,0,0,1-5.3,1.582c-3.629,0-6.049-2.233-6.607-6.049h14.424a12.3,12.3,0,0,0,.279-2.792c0-6.421-3.35-10.888-9.539-10.888-5.351,0-10.562,4.56-10.562,12C-824.577-183.779-819.645-179.405-813.317-179.405Zm-5.863-14.424c.465-3.443,2.7-5.3,5.3-5.3,2.978,0,4.56,1.954,4.56,5.3Zm26.15,14.424c5.816,0,8.98-3.164,8.98-7.119s-3.117-5.77-6.654-6.979c-2.885-.977-4.513-1.629-4.513-3.3,0-1.349,1.024-2.466,3.3-2.466a8.335,8.335,0,0,1,5.118,1.768l2.373-3.118a11.556,11.556,0,0,0-7.631-2.792c-5.118,0-8.375,2.885-8.375,6.886,0,3.629,3.071,5.537,6.375,6.747,2.559.931,4.793,1.675,4.793,3.583,0,1.535-1.163,2.652-3.583,2.652a9.77,9.77,0,0,1-6.421-2.326l-2.42,3.118A12.748,12.748,0,0,0-793.03-179.405Zm23.451,0a13.293,13.293,0,0,0,7.91-2.42l-1.861-3.443a9.6,9.6,0,0,1-5.3,1.582c-3.629,0-6.049-2.233-6.607-6.049h14.424a12.307,12.307,0,0,0,.279-2.792c0-6.421-3.35-10.888-9.539-10.888-5.351,0-10.562,4.56-10.562,12C-780.839-183.779-775.907-179.405-769.579-179.405Zm-5.863-14.424c.465-3.443,2.7-5.3,5.3-5.3,2.978,0,4.56,1.954,4.56,5.3Zm25.033,14.424a6.523,6.523,0,0,0,2.885-.512l-.651-4.048a2.87,2.87,0,0,1-.838.093c-.558,0-1.163-.465-1.163-1.815v-27.127h-5.537v26.848C-755.713-181.918-754.27-179.405-750.408-179.405Zm12.656,0a6.523,6.523,0,0,0,2.885-.512l-.651-4.048a2.871,2.871,0,0,1-.838.093c-.558,0-1.163-.465-1.163-1.815v-27.127h-5.537v26.848C-743.057-181.918-741.614-179.405-737.752-179.405Zm23.265-.558h5.537v-25.778h8.747v-4.653h-23.032v4.653h8.748Zm18.845,0h5.537v-22.893h-5.537Zm2.792-26.8a3.056,3.056,0,0,0,3.3-3.118,3.056,3.056,0,0,0-3.3-3.118,3.056,3.056,0,0,0-3.3,3.118A3.056,3.056,0,0,0-692.851-206.765Zm19.031,27.36a11.373,11.373,0,0,0,7.491-2.792l-2.233-3.49a7.373,7.373,0,0,1-4.7,1.815c-3.49,0-5.956-2.978-5.956-7.491,0-4.56,2.513-7.538,6.142-7.538a5.386,5.386,0,0,1,3.769,1.489l2.652-3.443a9.716,9.716,0,0,0-6.7-2.559c-6.142,0-11.539,4.42-11.539,12.051C-684.894-183.779-680.055-179.405-673.82-179.405Zm11.912-.558h5.444v-5.863l3.49-3.955,5.816,9.818h5.956l-8.562-13.494,7.771-9.4h-6.049l-8.236,10.33h-.186v-20.287h-5.444Zm33.036.558a13.293,13.293,0,0,0,7.91-2.42l-1.861-3.443a9.6,9.6,0,0,1-5.3,1.582c-3.629,0-6.049-2.233-6.607-6.049h14.424a12.3,12.3,0,0,0,.279-2.792c0-6.421-3.35-10.888-9.539-10.888-5.351,0-10.562,4.56-10.562,12C-640.132-183.779-635.2-179.405-628.872-179.405Zm-5.863-14.424c.465-3.443,2.7-5.3,5.3-5.3,2.978,0,4.56,1.954,4.56,5.3Zm27.406,14.424a11.592,11.592,0,0,0,4.746-.977l-.977-3.862a6.156,6.156,0,0,1-2.373.465c-2.14,0-3.211-1.3-3.211-3.955v-10.748h5.816v-4.374h-5.816v-7.119h-4.56l-.651,7.119-3.536.279v4.095h3.257v10.748C-614.634-182.755-612.68-179.405-607.329-179.405Zm14.7,0c5.816,0,8.98-3.164,8.98-7.119s-3.117-5.77-6.654-6.979c-2.885-.977-4.513-1.629-4.513-3.3,0-1.349,1.024-2.466,3.3-2.466a8.335,8.335,0,0,1,5.118,1.768l2.373-3.118a11.556,11.556,0,0,0-7.631-2.792c-5.118,0-8.375,2.885-8.375,6.886,0,3.629,3.071,5.537,6.375,6.747,2.559.931,4.793,1.675,4.793,3.583,0,1.535-1.163,2.652-3.583,2.652a9.769,9.769,0,0,1-6.421-2.326l-2.42,3.118A12.747,12.747,0,0,0-592.625-179.405Z" transform="translate(1278.297 1303)"/><path class="d" d="M-849.75-187.595h4.258v-9.089h3.471l5.01,9.089h4.759l-5.546-9.733a6.551,6.551,0,0,0,4.616-6.691c0-5.26-3.757-6.978-8.659-6.978h-7.908Zm4.258-12.488V-207.6h3.22c3.185,0,4.9.93,4.9,3.578,0,2.612-1.718,3.936-4.9,3.936Zm23.759,12.917a10.223,10.223,0,0,0,6.083-1.861l-1.431-2.648a7.38,7.38,0,0,1-4.079,1.217c-2.791,0-4.652-1.718-5.081-4.652h11.093a9.46,9.46,0,0,0,.215-2.147c0-4.938-2.576-8.373-7.335-8.373-4.115,0-8.123,3.507-8.123,9.232C-830.392-190.529-826.6-187.165-821.732-187.165Zm-4.509-11.093c.358-2.648,2.075-4.079,4.079-4.079,2.29,0,3.507,1.5,3.507,4.079Zm20.11,11.093c4.473,0,6.906-2.433,6.906-5.475s-2.4-4.437-5.117-5.367c-2.219-.751-3.471-1.252-3.471-2.541,0-1.038.787-1.9,2.541-1.9a6.41,6.41,0,0,1,3.936,1.36l1.825-2.4a8.887,8.887,0,0,0-5.868-2.147c-3.936,0-6.441,2.219-6.441,5.3,0,2.791,2.362,4.258,4.9,5.188,1.968.716,3.686,1.288,3.686,2.755,0,1.181-.895,2.04-2.755,2.04a7.513,7.513,0,0,1-4.938-1.789l-1.861,2.4A9.8,9.8,0,0,0-806.131-187.165Zm18.034,0a10.223,10.223,0,0,0,6.083-1.861l-1.431-2.648a7.38,7.38,0,0,1-4.079,1.217c-2.791,0-4.652-1.718-5.081-4.652h11.093a9.464,9.464,0,0,0,.215-2.147c0-4.938-2.576-8.373-7.335-8.373-4.115,0-8.123,3.507-8.123,9.232C-796.756-190.529-792.963-187.165-788.1-187.165Zm-4.509-11.093c.358-2.648,2.075-4.079,4.079-4.079,2.29,0,3.507,1.5,3.507,4.079Zm19.251,11.093a5.016,5.016,0,0,0,2.219-.394l-.5-3.113a2.207,2.207,0,0,1-.644.072c-.429,0-.894-.358-.894-1.4v-20.861h-4.258v20.646C-777.434-189.1-776.324-187.165-773.354-187.165Zm9.733,0a5.016,5.016,0,0,0,2.219-.394l-.5-3.113a2.208,2.208,0,0,1-.644.072c-.429,0-.895-.358-.895-1.4v-20.861H-767.7v20.646C-767.7-189.1-766.592-187.165-763.622-187.165Zm17.891-.429h4.258v-19.823h6.727V-211h-17.712v3.578h6.727Zm14.492,0h4.258v-17.6h-4.258Zm2.147-20.611a2.35,2.35,0,0,0,2.541-2.4,2.35,2.35,0,0,0-2.541-2.4,2.35,2.35,0,0,0-2.541,2.4A2.35,2.35,0,0,0-729.092-208.205Zm14.635,21.04a8.746,8.746,0,0,0,5.761-2.147L-710.413-192a5.67,5.67,0,0,1-3.614,1.4c-2.684,0-4.58-2.29-4.58-5.761,0-3.507,1.932-5.8,4.723-5.8a4.142,4.142,0,0,1,2.9,1.145l2.04-2.648a7.472,7.472,0,0,0-5.153-1.968c-4.723,0-8.874,3.4-8.874,9.268C-722.973-190.529-719.251-187.165-714.457-187.165Zm9.16-.429h4.187V-192.1l2.684-3.042,4.473,7.55h4.58l-6.584-10.377,5.976-7.228h-4.652l-6.333,7.944h-.143v-15.6H-705.3Zm25.406.429a10.223,10.223,0,0,0,6.083-1.861l-1.431-2.648a7.38,7.38,0,0,1-4.079,1.217c-2.791,0-4.652-1.718-5.081-4.652h11.093a9.457,9.457,0,0,0,.215-2.147c0-4.938-2.576-8.373-7.335-8.373-4.115,0-8.123,3.507-8.123,9.232C-688.55-190.529-684.757-187.165-679.891-187.165Zm-4.509-11.093c.358-2.648,2.075-4.079,4.079-4.079,2.29,0,3.507,1.5,3.507,4.079Zm21.076,11.093a8.914,8.914,0,0,0,3.65-.751l-.751-2.97a4.734,4.734,0,0,1-1.825.358c-1.646,0-2.469-1-2.469-3.042v-8.266h4.473V-205.2h-4.473v-5.475h-3.507l-.5,5.475-2.719.215v3.149h2.5v8.266C-668.941-189.741-667.439-187.165-663.324-187.165Zm11.307,0c4.473,0,6.906-2.433,6.906-5.475s-2.4-4.437-5.117-5.367c-2.219-.751-3.471-1.252-3.471-2.541,0-1.038.787-1.9,2.54-1.9a6.41,6.41,0,0,1,3.936,1.36l1.825-2.4a8.887,8.887,0,0,0-5.868-2.147c-3.936,0-6.441,2.219-6.441,5.3,0,2.791,2.362,4.258,4.9,5.188,1.968.716,3.686,1.288,3.686,2.755,0,1.181-.895,2.04-2.755,2.04a7.513,7.513,0,0,1-4.938-1.789l-1.861,2.4A9.8,9.8,0,0,0-652.016-187.165Z" transform="translate(1310.03 1237)"/><path class="d" d="M-849.75-187.595h4.258v-9.089h3.471l5.01,9.089h4.759l-5.546-9.733a6.551,6.551,0,0,0,4.616-6.691c0-5.26-3.757-6.978-8.659-6.978h-7.908Zm4.258-12.488V-207.6h3.22c3.185,0,4.9.93,4.9,3.578,0,2.612-1.718,3.936-4.9,3.936Zm23.759,12.917a10.223,10.223,0,0,0,6.083-1.861l-1.431-2.648a7.38,7.38,0,0,1-4.079,1.217c-2.791,0-4.652-1.718-5.081-4.652h11.093a9.46,9.46,0,0,0,.215-2.147c0-4.938-2.576-8.373-7.335-8.373-4.115,0-8.123,3.507-8.123,9.232C-830.392-190.529-826.6-187.165-821.732-187.165Zm-4.509-11.093c.358-2.648,2.075-4.079,4.079-4.079,2.29,0,3.507,1.5,3.507,4.079Zm20.11,11.093c4.473,0,6.906-2.433,6.906-5.475s-2.4-4.437-5.117-5.367c-2.219-.751-3.471-1.252-3.471-2.541,0-1.038.787-1.9,2.541-1.9a6.41,6.41,0,0,1,3.936,1.36l1.825-2.4a8.887,8.887,0,0,0-5.868-2.147c-3.936,0-6.441,2.219-6.441,5.3,0,2.791,2.362,4.258,4.9,5.188,1.968.716,3.686,1.288,3.686,2.755,0,1.181-.895,2.04-2.755,2.04a7.513,7.513,0,0,1-4.938-1.789l-1.861,2.4A9.8,9.8,0,0,0-806.131-187.165Zm18.034,0a10.223,10.223,0,0,0,6.083-1.861l-1.431-2.648a7.38,7.38,0,0,1-4.079,1.217c-2.791,0-4.652-1.718-5.081-4.652h11.093a9.464,9.464,0,0,0,.215-2.147c0-4.938-2.576-8.373-7.335-8.373-4.115,0-8.123,3.507-8.123,9.232C-796.756-190.529-792.963-187.165-788.1-187.165Zm-4.509-11.093c.358-2.648,2.075-4.079,4.079-4.079,2.29,0,3.507,1.5,3.507,4.079Zm19.251,11.093a5.016,5.016,0,0,0,2.219-.394l-.5-3.113a2.207,2.207,0,0,1-.644.072c-.429,0-.894-.358-.894-1.4v-20.861h-4.258v20.646C-777.434-189.1-776.324-187.165-773.354-187.165Zm9.733,0a5.016,5.016,0,0,0,2.219-.394l-.5-3.113a2.208,2.208,0,0,1-.644.072c-.429,0-.895-.358-.895-1.4v-20.861H-767.7v20.646C-767.7-189.1-766.592-187.165-763.622-187.165Zm17.891-.429h4.258v-19.823h6.727V-211h-17.712v3.578h6.727Zm14.492,0h4.258v-17.6h-4.258Zm2.147-20.611a2.35,2.35,0,0,0,2.541-2.4,2.35,2.35,0,0,0-2.541-2.4,2.35,2.35,0,0,0-2.541,2.4A2.35,2.35,0,0,0-729.092-208.205Zm14.635,21.04a8.746,8.746,0,0,0,5.761-2.147L-710.413-192a5.67,5.67,0,0,1-3.614,1.4c-2.684,0-4.58-2.29-4.58-5.761,0-3.507,1.932-5.8,4.723-5.8a4.142,4.142,0,0,1,2.9,1.145l2.04-2.648a7.472,7.472,0,0,0-5.153-1.968c-4.723,0-8.874,3.4-8.874,9.268C-722.973-190.529-719.251-187.165-714.457-187.165Zm9.16-.429h4.187V-192.1l2.684-3.042,4.473,7.55h4.58l-6.584-10.377,5.976-7.228h-4.652l-6.333,7.944h-.143v-15.6H-705.3Zm25.406.429a10.223,10.223,0,0,0,6.083-1.861l-1.431-2.648a7.38,7.38,0,0,1-4.079,1.217c-2.791,0-4.652-1.718-5.081-4.652h11.093a9.457,9.457,0,0,0,.215-2.147c0-4.938-2.576-8.373-7.335-8.373-4.115,0-8.123,3.507-8.123,9.232C-688.55-190.529-684.757-187.165-679.891-187.165Zm-4.509-11.093c.358-2.648,2.075-4.079,4.079-4.079,2.29,0,3.507,1.5,3.507,4.079Zm21.076,11.093a8.914,8.914,0,0,0,3.65-.751l-.751-2.97a4.734,4.734,0,0,1-1.825.358c-1.646,0-2.469-1-2.469-3.042v-8.266h4.473V-205.2h-4.473v-5.475h-3.507l-.5,5.475-2.719.215v3.149h2.5v8.266C-668.941-189.741-667.439-187.165-663.324-187.165Zm11.307,0c4.473,0,6.906-2.433,6.906-5.475s-2.4-4.437-5.117-5.367c-2.219-.751-3.471-1.252-3.471-2.541,0-1.038.787-1.9,2.54-1.9a6.41,6.41,0,0,1,3.936,1.36l1.825-2.4a8.887,8.887,0,0,0-5.868-2.147c-3.936,0-6.441,2.219-6.441,5.3,0,2.791,2.362,4.258,4.9,5.188,1.968.716,3.686,1.288,3.686,2.755,0,1.181-.895,2.04-2.755,2.04a7.513,7.513,0,0,1-4.938-1.789l-1.861,2.4A9.8,9.8,0,0,0-652.016-187.165Z" transform="translate(1310.03 1536)"/><path class="d" d="M-849.75-179.964h5.537v-11.819h4.513l6.514,11.819H-827l-7.212-12.656c3.629-1.256,6-4.095,6-8.7,0-6.84-4.886-9.073-11.26-9.073H-849.75Zm5.537-16.239v-9.771h4.188c4.141,0,6.375,1.21,6.375,4.653,0,3.4-2.234,5.118-6.375,5.118Zm30.9,16.8a13.293,13.293,0,0,0,7.91-2.42l-1.861-3.443a9.6,9.6,0,0,1-5.3,1.582c-3.629,0-6.049-2.233-6.607-6.049h14.424a12.3,12.3,0,0,0,.279-2.792c0-6.421-3.35-10.888-9.539-10.888-5.351,0-10.562,4.56-10.562,12C-824.577-183.779-819.645-179.405-813.317-179.405Zm-5.863-14.424c.465-3.443,2.7-5.3,5.3-5.3,2.978,0,4.56,1.954,4.56,5.3Zm26.15,14.424c5.816,0,8.98-3.164,8.98-7.119s-3.117-5.77-6.654-6.979c-2.885-.977-4.513-1.629-4.513-3.3,0-1.349,1.024-2.466,3.3-2.466a8.335,8.335,0,0,1,5.118,1.768l2.373-3.118a11.556,11.556,0,0,0-7.631-2.792c-5.118,0-8.375,2.885-8.375,6.886,0,3.629,3.071,5.537,6.375,6.747,2.559.931,4.793,1.675,4.793,3.583,0,1.535-1.163,2.652-3.583,2.652a9.77,9.77,0,0,1-6.421-2.326l-2.42,3.118A12.748,12.748,0,0,0-793.03-179.405Zm23.451,0a13.293,13.293,0,0,0,7.91-2.42l-1.861-3.443a9.6,9.6,0,0,1-5.3,1.582c-3.629,0-6.049-2.233-6.607-6.049h14.424a12.307,12.307,0,0,0,.279-2.792c0-6.421-3.35-10.888-9.539-10.888-5.351,0-10.562,4.56-10.562,12C-780.839-183.779-775.907-179.405-769.579-179.405Zm-5.863-14.424c.465-3.443,2.7-5.3,5.3-5.3,2.978,0,4.56,1.954,4.56,5.3Zm25.033,14.424a6.523,6.523,0,0,0,2.885-.512l-.651-4.048a2.87,2.87,0,0,1-.838.093c-.558,0-1.163-.465-1.163-1.815v-27.127h-5.537v26.848C-755.713-181.918-754.27-179.405-750.408-179.405Zm12.656,0a6.523,6.523,0,0,0,2.885-.512l-.651-4.048a2.871,2.871,0,0,1-.838.093c-.558,0-1.163-.465-1.163-1.815v-27.127h-5.537v26.848C-743.057-181.918-741.614-179.405-737.752-179.405Zm23.265-.558h5.537v-25.778h8.747v-4.653h-23.032v4.653h8.748Zm18.845,0h5.537v-22.893h-5.537Zm2.792-26.8a3.056,3.056,0,0,0,3.3-3.118,3.056,3.056,0,0,0-3.3-3.118,3.056,3.056,0,0,0-3.3,3.118A3.056,3.056,0,0,0-692.851-206.765Zm19.031,27.36a11.373,11.373,0,0,0,7.491-2.792l-2.233-3.49a7.373,7.373,0,0,1-4.7,1.815c-3.49,0-5.956-2.978-5.956-7.491,0-4.56,2.513-7.538,6.142-7.538a5.386,5.386,0,0,1,3.769,1.489l2.652-3.443a9.716,9.716,0,0,0-6.7-2.559c-6.142,0-11.539,4.42-11.539,12.051C-684.894-183.779-680.055-179.405-673.82-179.405Zm11.912-.558h5.444v-5.863l3.49-3.955,5.816,9.818h5.956l-8.562-13.494,7.771-9.4h-6.049l-8.236,10.33h-.186v-20.287h-5.444Zm33.036.558a13.293,13.293,0,0,0,7.91-2.42l-1.861-3.443a9.6,9.6,0,0,1-5.3,1.582c-3.629,0-6.049-2.233-6.607-6.049h14.424a12.3,12.3,0,0,0,.279-2.792c0-6.421-3.35-10.888-9.539-10.888-5.351,0-10.562,4.56-10.562,12C-640.132-183.779-635.2-179.405-628.872-179.405Zm-5.863-14.424c.465-3.443,2.7-5.3,5.3-5.3,2.978,0,4.56,1.954,4.56,5.3Zm27.406,14.424a11.592,11.592,0,0,0,4.746-.977l-.977-3.862a6.156,6.156,0,0,1-2.373.465c-2.14,0-3.211-1.3-3.211-3.955v-10.748h5.816v-4.374h-5.816v-7.119h-4.56l-.651,7.119-3.536.279v4.095h3.257v10.748C-614.634-182.755-612.68-179.405-607.329-179.405Zm14.7,0c5.816,0,8.98-3.164,8.98-7.119s-3.117-5.77-6.654-6.979c-2.885-.977-4.513-1.629-4.513-3.3,0-1.349,1.024-2.466,3.3-2.466a8.335,8.335,0,0,1,5.118,1.768l2.373-3.118a11.556,11.556,0,0,0-7.631-2.792c-5.118,0-8.375,2.885-8.375,6.886,0,3.629,3.071,5.537,6.375,6.747,2.559.931,4.793,1.675,4.793,3.583,0,1.535-1.163,2.652-3.583,2.652a9.769,9.769,0,0,1-6.421-2.326l-2.42,3.118A12.747,12.747,0,0,0-592.625-179.405Z" transform="translate(1278.297 1463)"/></g></svg>