<svg xmlns="http://www.w3.org/2000/svg" width="146.825" height="226" viewBox="0 0 146.825 226"><defs><style>.a{fill:#3851a3;stroke:#d5d5d5;opacity:0.22;}</style></defs><path class="a" d="M17.4-164.7q1.8-27.9,21.45-43.5T89.1-223.8q21,0,36.3,7.5t23.1,20.4a55.13,55.13,0,0,1,7.8,29.1q0,18.6-9.9,31.8t-23.7,17.7v1.2q17.7,5.4,27.6,19.65T160.2-60q0,17.7-8.1,31.5t-24,21.75Q112.2,1.2,90,1.2q-32.4,0-53.25-16.65T14.4-63.3h33q1.2,15.9,12.3,25.95t30,10.05q18.3,0,28.2-10.05t9.9-25.95q0-21-13.35-29.85T73.5-102H65.7v-28.2h8.1q24.3-.3,37.05-8.1t12.75-24.6q0-14.4-9.3-22.95T87.9-194.4q-16.8,0-26.1,8.55A34.535,34.535,0,0,0,50.7-164.7Z" transform="translate(-13.875 224.3)"/></svg>