<svg xmlns="http://www.w3.org/2000/svg" width="147.113" height="221.2" viewBox="0 0 147.113 221.2"><defs><style>.a{fill:#3851a3;stroke:#d5d5d5;opacity:0.22;}</style></defs><path class="a" d="M36.9-46.5Q65.7-71.4,82.35-87.45A184.477,184.477,0,0,0,110.1-120.9q11.1-17.4,11.1-34.8,0-18-8.55-28.2T85.8-194.1q-17.7,0-27.45,11.25T48-152.7H15q.9-34.2,20.55-52.35T85.5-223.2q32.7,0,51.15,18t18.45,48a85.215,85.215,0,0,1-10.95,41.55,167.321,167.321,0,0,1-26.1,35.7Q102.9-64.2,79.5-43.5L66-31.5h95.1V-3H15.3V-27.9Z" transform="translate(-14.487 223.7)"/></svg>