<svg xmlns="http://www.w3.org/2000/svg" width="34" height="34" viewBox="0 0 34 34"><defs><style>.a{fill:#fff;}.b{fill:#ff5f00;}.c{fill:#eb001b;}.d{fill:#f79e1b;}</style></defs><g transform="translate(-0.169 0.312)"><rect class="a" width="34" height="34" rx="5" transform="translate(0.169 -0.312)"/><g transform="translate(3.211 8.027)"><rect class="b" width="7.576" height="13.615" transform="translate(10.221 1.849)"/><path class="c" d="M48.667,27.662a8.644,8.644,0,0,1,3.307-6.807,8.658,8.658,0,1,0,0,13.615A8.644,8.644,0,0,1,48.667,27.662Z" transform="translate(-37.965 -19.001)"/><path class="d" d="M110.22,27.651a8.658,8.658,0,0,1-14.01,6.807,8.658,8.658,0,0,0,0-13.615,8.658,8.658,0,0,1,14.01,6.809Z" transform="translate(-82.201 -18.991)"/><path class="d" d="M150.468,76.227v-.279h.113v-.055H150.3v.058h.113v.279Zm.556,0V75.89h-.075l-.1.241-.1-.241h-.089v.337h.051v-.253l.094.219h.065l.094-.219v.255Z" transform="translate(-123.282 -62.205)"/></g></g></svg>