<svg xmlns="http://www.w3.org/2000/svg" width="34" height="34" viewBox="0 0 34 34"><defs><style>.a{fill:#fff;}.b{fill:#00579f;}.c{fill:#faa61a;}</style></defs><g transform="translate(-0.254 0.312)"><g transform="translate(0 0)"><rect class="a" width="34" height="34" rx="5" transform="translate(0.254 -0.312)"/><g transform="translate(2.338 11.94)"><path class="b" d="M435.9,120h-2.4l1.5-9.273h2.4Z" transform="translate(-423.079 -110.559)"/><path class="b" d="M572.371,105.442a5.909,5.909,0,0,0-2.151-.395c-2.368,0-4.035,1.263-4.045,3.068-.02,1.332,1.194,2.072,2.1,2.516.928.454,1.243.75,1.243,1.154-.009.621-.75.908-1.44.908a4.772,4.772,0,0,1-2.25-.493l-.316-.148-.336,2.082a7.3,7.3,0,0,0,2.674.494c2.516,0,4.154-1.243,4.173-3.167.01-1.056-.631-1.864-2.013-2.525-.839-.424-1.352-.71-1.352-1.145.01-.395.434-.8,1.381-.8a4.074,4.074,0,0,1,1.786.355l.217.1.326-2Z" transform="translate(-550.853 -105.048)"/><path class="b" d="M794.232,116.715c.2-.533.957-2.595.957-2.595-.01.02.2-.543.315-.888l.168.8s.454,2.22.553,2.683Zm2.96-5.988h-1.855a1.183,1.183,0,0,0-1.253.769l-3.562,8.5h2.516l.5-1.391h3.078c.069.326.286,1.391.286,1.391h2.22l-1.934-9.273Z" transform="translate(-769.527 -110.559)"/><path class="b" d="M171.755,110.727l-2.348,6.323-.257-1.282a7.1,7.1,0,0,0-3.315-3.887l2.151,8.109h2.536l3.769-9.263Z" transform="translate(-163.33 -110.559)"/><path class="c" d="M85.063,110.727H81.205l-.039.187a8.023,8.023,0,0,1,5.821,4.854l-.839-4.262a.992.992,0,0,0-1.085-.779Z" transform="translate(-81.166 -110.559)"/></g></g></g></svg>