<svg xmlns="http://www.w3.org/2000/svg" width="39.061" height="39.061" viewBox="0 0 39.061 39.061"><defs><style>.a{fill:none;}.a,.b{stroke:#fff;}.b{fill:#fff;stroke-miterlimit:10;fill-rule:evenodd;}</style></defs><g transform="translate(0.5 0.5)"><rect class="a" width="38.061" height="38.061" rx="19.03"/><path class="b" d="M64.975,260.9V260.9c0-.005-.01-.005-.021-.015h-.005a2.734,2.734,0,0,0-.713-.259s-.011,0-.011-.005a6.128,6.128,0,0,1-2.932-2.136,6.746,6.746,0,0,1-1-1.753v-.01a.853.853,0,0,1,.036-.75,0,0,0,0,0,.005-.005,2.089,2.089,0,0,1,1.009-.641h.005a3.92,3.92,0,0,0,1.365-.7c.005,0,.005,0,.011,0a.813.813,0,0,0,.2-.253.405.405,0,0,0,.031-.093.5.5,0,0,0-.026-.357v-.005a1.1,1.1,0,0,0-.475-.456h-.006a.99.99,0,0,0-.817-.072h-.005a5.26,5.26,0,0,1-.724.212.018.018,0,0,0-.015.005,1.684,1.684,0,0,1-.823-.02c-.005-.031-.005-.1-.015-.181h.005c-.021-.5.026-1.009.031-1.541v-.005a14.16,14.16,0,0,0-.062-2.472v-.011a5.536,5.536,0,0,0-2.317-3.433,5.817,5.817,0,0,0-2.834-1.009h0c-.346-.031-.682-.041-1.018-.041a6.337,6.337,0,0,0-3.873,1.231,6.242,6.242,0,0,0-1.888,2.461v.005a6.968,6.968,0,0,0-.305,3.005h0a14.184,14.184,0,0,1,.046,1.975.262.262,0,0,1-.01.042,2.708,2.708,0,0,1-.972-.026H46.84a7.584,7.584,0,0,1-.745-.207.019.019,0,0,1-.016-.006.893.893,0,0,0-.724.166c-.005,0-.01,0-.01,0s-.01.005-.01.011a.74.74,0,0,0-.4.594.271.271,0,0,0,0,.057c.006,0,0,.005.006.005a.7.7,0,0,0,.248.4c.1.087.2.145.254.191.005,0,.01,0,.015.01a7.291,7.291,0,0,0,1.525.662h0a1.1,1.1,0,0,1,.683.652,1.863,1.863,0,0,1-.269,1.169v.005a7.207,7.207,0,0,1-2.316,2.653,5.594,5.594,0,0,1-1.7.775.13.13,0,0,0-.026.01.966.966,0,0,0-.6.352c-.01.021-.02.042-.031.068a.52.52,0,0,0,.1.475.79.79,0,0,0,.259.2c.005,0,.01.005.016.005a5.907,5.907,0,0,0,1.572.548,0,0,0,0,1,.005.005,5.57,5.57,0,0,1,.982.243c.01.021.042.114.1.269.093.28.134.605.238.952a.291.291,0,0,0,.212.191.556.556,0,0,0,.377-.031h.031a6.137,6.137,0,0,1,2.482-.088h0a9.833,9.833,0,0,1,2.333,1.262v.006h0a3.825,3.825,0,0,0,1.861.682h.005a13.286,13.286,0,0,0,1.577-.036h.011a2.911,2.911,0,0,0,1.241-.424c0-.006.01-.011.015-.011.844-.48,1.588-1.055,2.41-1.417h.006a3.963,3.963,0,0,1,.967-.113h.01a12.726,12.726,0,0,1,2.037.1.244.244,0,0,0,.068,0,.829.829,0,0,0,.232-.129.319.319,0,0,0,.073-.145c.02-.067.026-.078.031-.1a2.783,2.783,0,0,1,.393-1,.6.6,0,0,1,.419-.13h.036a7.333,7.333,0,0,0,1.618-.455.034.034,0,0,1,.021-.005,1.431,1.431,0,0,0,.657-.44v-.005h0a.462.462,0,0,0-.14-.662Z" transform="translate(-34.917 -236.355)"/></g></svg>