<svg xmlns="http://www.w3.org/2000/svg" xmlns:xlink="http://www.w3.org/1999/xlink" width="445" height="385" viewBox="0 0 445 385"><defs><style>.a{fill:url(#a);}.b{clip-path:url(#c);}.c{fill:#fff;}.d{fill:#e6e6e6;}.e{fill:#38de3e;stroke:#37db22;}.f{fill:none;stroke:#d81a21;stroke-linecap:round;stroke-linejoin:round;stroke-width:3.3px;}</style><linearGradient id="a" x1="1.028" y1="-0.039" x2="0.028" y2="0.963" gradientUnits="objectBoundingBox"><stop offset="0" stop-color="#1880e7"/><stop offset="0.631" stop-color="#3851a3"/><stop offset="1" stop-color="#213c93"/></linearGradient><clipPath id="c"><path class="a" d="M5,0H445a0,0,0,0,1,0,0V385a0,0,0,0,1,0,0H5a5,5,0,0,1-5-5V5A5,5,0,0,1,5,0Z" transform="translate(340 994)"/></clipPath></defs><g transform="translate(-340 -994)"><path class="a" d="M5,0H445a0,0,0,0,1,0,0V385a0,0,0,0,1,0,0H5a5,5,0,0,1-5-5V5A5,5,0,0,1,5,0Z" transform="translate(340 994)"/><g class="b"><g transform="translate(428.186 1144.355)"><rect class="c" width="144" height="248" rx="6" transform="translate(-0.185 -0.355)"/><g transform="translate(27.762 153.729)"><g transform="translate(0 13.766)"><rect class="d" width="72" height="14" rx="7" transform="translate(0.052 0.15)"/><rect class="d" width="85" height="16" rx="8" transform="translate(0.052 33.15)"/></g><g transform="translate(0 0)"><rect class="d" width="25" height="5" rx="2.5" transform="translate(0.052 38.915)"/><rect class="d" width="25" height="6" rx="3" transform="translate(0.052 -0.085)"/></g></g><path class="e" d="M33.831,69.547a6.675,6.675,0,0,0,5.346-2.27L83.694,11.693a7.3,7.3,0,0,0,1.024-1.633,3.639,3.639,0,0,0,.325-1.433,3.542,3.542,0,0,0-1.4-2.907A5.676,5.676,0,0,0,80,4.605a6.178,6.178,0,0,0-2.648.5,6.54,6.54,0,0,0-2.1,1.732L33.681,59.593,12.146,37.415A5.962,5.962,0,0,0,7.6,35.424a5.934,5.934,0,0,0-3.772,1.155,3.585,3.585,0,0,0-1.474,2.946,3.634,3.634,0,0,0,.375,1.553,5.381,5.381,0,0,0,1.224,1.593L28.385,67.278A7.6,7.6,0,0,0,33.831,69.547Z" transform="translate(29.104 54.019)"/><path class="f" d="M144.64,344.18h42.751s8.167,20.616,16.334,20.616,16.334-20.616,16.334-20.616h39.567V585.135H220.059s-8.167-21.328-16.334-21.328-16.334,21.328-16.334,21.328H144.64Z" transform="translate(-130.706 -312.032)"/></g><g transform="translate(541.186 1108.355)"><rect class="c" width="144" height="303" rx="6" transform="translate(-0.185 -0.355)"/><g transform="translate(27.762 153.729)"><g transform="translate(0 13.766)"><rect class="d" width="72" height="14" rx="7" transform="translate(0.052 0.15)"/><rect class="d" width="85" height="16" rx="8" transform="translate(0.052 33.15)"/></g><g transform="translate(0 0)"><rect class="d" width="25" height="5" rx="2.5" transform="translate(0.052 38.915)"/><rect class="d" width="25" height="6" rx="3" transform="translate(0.052 -0.085)"/></g></g><path class="e" d="M33.831,69.547a6.675,6.675,0,0,0,5.346-2.27L83.694,11.693a7.3,7.3,0,0,0,1.024-1.633,3.639,3.639,0,0,0,.325-1.433,3.542,3.542,0,0,0-1.4-2.907A5.676,5.676,0,0,0,80,4.605a6.178,6.178,0,0,0-2.648.5,6.54,6.54,0,0,0-2.1,1.732L33.681,59.593,12.146,37.415A5.962,5.962,0,0,0,7.6,35.424a5.934,5.934,0,0,0-3.772,1.155,3.585,3.585,0,0,0-1.474,2.946,3.634,3.634,0,0,0,.375,1.553,5.381,5.381,0,0,0,1.224,1.593L28.385,67.278A7.6,7.6,0,0,0,33.831,69.547Z" transform="translate(29.104 54.019)"/><path class="f" d="M144.64,344.18h42.751s8.167,20.616,16.334,20.616,16.334-20.616,16.334-20.616h39.567V585.135H220.059s-8.167-21.328-16.334-21.328-16.334,21.328-16.334,21.328H144.64Z" transform="translate(-130.706 -312.032)"/></g></g></g></svg>