<svg xmlns="http://www.w3.org/2000/svg" width="209" height="44" viewBox="0 0 209 44"><defs><style>.a,.b{fill:#fff;}.a{font-size:16px;font-family:SourceSansPro-Semibold, Source Sans Pro;font-weight:600;}.c{fill:#3851a3;}</style></defs><g transform="translate(-206 -2998)"><text class="a" transform="translate(276 3014)"><tspan x="0" y="0">Every order is 100% </tspan><tspan x="0" y="22">guaranteed</tspan></text><g transform="translate(-444 355)"><circle class="b" cx="21" cy="21" r="21" transform="translate(650 2644)"/><path class="c" d="M1.65,15.787a7,7,0,0,0,.356,2.256A6.1,6.1,0,0,0,3,19.9a4.771,4.771,0,0,0,1.475,1.255,3.74,3.74,0,0,0,1.807.454H9.326a8.5,8.5,0,0,0,2.017.752,9.954,9.954,0,0,0,2.329.264h1.289q.879,0,1.616-.059a8.429,8.429,0,0,0,1.235-.176,2.993,2.993,0,0,0,1.567-.9,2.236,2.236,0,0,0,.581-1.533,2.117,2.117,0,0,0-.1-.635,2.382,2.382,0,0,0,1-1.982,2.58,2.58,0,0,0-.205-1.045,2.194,2.194,0,0,0,.5-.786,2.719,2.719,0,0,0,.176-.972,3.008,3.008,0,0,0-.073-.659,2.053,2.053,0,0,0-.22-.581,2.568,2.568,0,0,0,.41-1.475,2.532,2.532,0,0,0-.337-1.294,2.457,2.457,0,0,0-2.192-1.245H15.459a.412.412,0,0,1-.254-.073A.225.225,0,0,1,15.117,9a2.839,2.839,0,0,1,.249-.952q.239-.581.542-1.289a15.038,15.038,0,0,0,.537-1.465,4.9,4.9,0,0,0,.234-1.45,2.436,2.436,0,0,0-.288-1.2,2.13,2.13,0,0,0-.791-.82,2.209,2.209,0,0,0-1.147-.3,1.953,1.953,0,0,0-1.221.4,3.768,3.768,0,0,0-.977,1.284q-.43.82-.908,1.611T10.313,6.412q-.557.8-1.221,1.67T7.637,9.928H5.928a3.336,3.336,0,0,0-2.168.791,5.465,5.465,0,0,0-1.538,2.119A7.389,7.389,0,0,0,1.65,15.787Zm5.576-.059a8.812,8.812,0,0,1,.166-1.792,6.389,6.389,0,0,1,.537-1.543,10.577,10.577,0,0,1,1-1.587q.7-.928,1.528-1.992t1.66-2.28a21.852,21.852,0,0,0,1.528-2.6,2.156,2.156,0,0,1,.43-.635.634.634,0,0,1,.42-.156.574.574,0,0,1,.454.2.819.819,0,0,1,.171.557,3.6,3.6,0,0,1-.239,1.2q-.239.669-.547,1.377t-.542,1.382a3.777,3.777,0,0,0-.234,1.23,1.564,1.564,0,0,0,.586,1.284,2.24,2.24,0,0,0,1.455.474h3.3a.95.95,0,0,1,.708.283.976.976,0,0,1,.278.713,1.409,1.409,0,0,1-.459,1.016.531.531,0,0,0-.176.342.419.419,0,0,0,.117.342,3.905,3.905,0,0,1,.3.532,1.181,1.181,0,0,1-.049,1.04,1.512,1.512,0,0,1-.439.479.748.748,0,0,0-.273.376.6.6,0,0,0,.059.464q.166.313.239.493a1.127,1.127,0,0,1,.073.425q0,.654-.908,1.143a.465.465,0,0,0-.254.283.569.569,0,0,0,.029.371,5.187,5.187,0,0,1,.205.518,1.1,1.1,0,0,1,.039.3.758.758,0,0,1-.239.552,1.572,1.572,0,0,1-.728.366,5.624,5.624,0,0,1-1.04.151q-.64.044-1.47.044l-1.221-.02a8.1,8.1,0,0,1-3.384-.7,5.493,5.493,0,0,1-2.266-1.87A4.758,4.758,0,0,1,7.227,15.729ZM3.2,15.787a6.063,6.063,0,0,1,.366-2.153,4.13,4.13,0,0,1,.972-1.553,1.945,1.945,0,0,1,1.309-.6h.781a8.414,8.414,0,0,0-.732,2,10.117,10.117,0,0,0-.234,2.236,6.357,6.357,0,0,0,.444,2.388,6.238,6.238,0,0,0,1.265,1.978H6.221a2.348,2.348,0,0,1-1.489-.605,4.178,4.178,0,0,1-1.108-1.558A5.322,5.322,0,0,1,3.2,15.787Z" transform="translate(659 2653)"/></g></g></svg>