<svg xmlns="http://www.w3.org/2000/svg" width="44.1" height="40.091" viewBox="0 0 44.1 40.091"><defs><style>.a{fill:#d5d5d5;}</style></defs><path class="a" d="M20.151,21.594h1.294a1.226,1.226,0,0,0,.809-.206,1.02,1.02,0,0,0,.231-.777V19.332a1.062,1.062,0,0,0-.231-.788,1.179,1.179,0,0,0-.809-.217H20.151a1.131,1.131,0,0,0-.8.217,1.1,1.1,0,0,0-.22.788v1.279a1.055,1.055,0,0,0,.22.777A1.176,1.176,0,0,0,20.151,21.594Zm7.188,0h1.294a1.22,1.22,0,0,0,.821-.206,1.055,1.055,0,0,0,.22-.777V19.332a1.1,1.1,0,0,0-.22-.788,1.173,1.173,0,0,0-.821-.217H27.339a1.131,1.131,0,0,0-.8.217,1.1,1.1,0,0,0-.22.788v1.279a1.055,1.055,0,0,0,.22.777A1.176,1.176,0,0,0,27.339,21.594Zm7.211,0h1.271a1.271,1.271,0,0,0,.832-.206,1.02,1.02,0,0,0,.231-.777V19.332a1.062,1.062,0,0,0-.231-.788,1.221,1.221,0,0,0-.832-.217H34.55a1.131,1.131,0,0,0-.8.217,1.1,1.1,0,0,0-.22.788v1.279a1.055,1.055,0,0,0,.22.777A1.176,1.176,0,0,0,34.55,21.594ZM12.962,28.607h1.271a1.227,1.227,0,0,0,.821-.217A1.029,1.029,0,0,0,15.3,27.6V26.345a.989.989,0,0,0-.243-.777,1.277,1.277,0,0,0-.821-.206H12.962a1.176,1.176,0,0,0-.8.206,1.055,1.055,0,0,0-.22.777V27.6a1.1,1.1,0,0,0,.22.788A1.131,1.131,0,0,0,12.962,28.607Zm7.188,0h1.294a1.179,1.179,0,0,0,.809-.217,1.062,1.062,0,0,0,.231-.788V26.345a1.02,1.02,0,0,0-.231-.777,1.226,1.226,0,0,0-.809-.206H20.151a1.176,1.176,0,0,0-.8.206,1.055,1.055,0,0,0-.22.777V27.6a1.1,1.1,0,0,0,.22.788A1.131,1.131,0,0,0,20.151,28.607Zm7.188,0h1.294a1.173,1.173,0,0,0,.821-.217,1.1,1.1,0,0,0,.22-.788V26.345a1.055,1.055,0,0,0-.22-.777,1.22,1.22,0,0,0-.821-.206H27.339a1.176,1.176,0,0,0-.8.206,1.055,1.055,0,0,0-.22.777V27.6a1.1,1.1,0,0,0,.22.788A1.131,1.131,0,0,0,27.339,28.607Zm7.211,0h1.271a1.221,1.221,0,0,0,.832-.217,1.062,1.062,0,0,0,.231-.788V26.345a1.02,1.02,0,0,0-.231-.777,1.271,1.271,0,0,0-.832-.206H34.55a1.176,1.176,0,0,0-.8.206,1.055,1.055,0,0,0-.22.777V27.6a1.1,1.1,0,0,0,.22.788A1.131,1.131,0,0,0,34.55,28.607ZM12.962,35.62h1.271a1.227,1.227,0,0,0,.821-.217,1.029,1.029,0,0,0,.243-.788V33.335a.989.989,0,0,0-.243-.777,1.277,1.277,0,0,0-.821-.206H12.962a1.176,1.176,0,0,0-.8.206,1.055,1.055,0,0,0-.22.777v1.279a1.1,1.1,0,0,0,.22.788A1.131,1.131,0,0,0,12.962,35.62Zm7.188,0h1.294a1.178,1.178,0,0,0,.809-.217,1.062,1.062,0,0,0,.231-.788V33.335a1.02,1.02,0,0,0-.231-.777,1.226,1.226,0,0,0-.809-.206H20.151a1.176,1.176,0,0,0-.8.206,1.055,1.055,0,0,0-.22.777v1.279a1.1,1.1,0,0,0,.22.788A1.131,1.131,0,0,0,20.151,35.62Zm7.188,0h1.294a1.173,1.173,0,0,0,.821-.217,1.1,1.1,0,0,0,.22-.788V33.335a1.055,1.055,0,0,0-.22-.777,1.22,1.22,0,0,0-.821-.206H27.339a1.176,1.176,0,0,0-.8.206,1.055,1.055,0,0,0-.22.777v1.279a1.1,1.1,0,0,0,.22.788A1.131,1.131,0,0,0,27.339,35.62ZM9.4,43.866h30a7.259,7.259,0,0,0,5.27-1.736,6.869,6.869,0,0,0,1.78-5.14V10.651a6.869,6.869,0,0,0-1.78-5.14A7.259,7.259,0,0,0,39.4,3.775H9.4A7.289,7.289,0,0,0,4.133,5.5a6.862,6.862,0,0,0-1.78,5.151V36.99a6.862,6.862,0,0,0,1.78,5.151A7.289,7.289,0,0,0,9.4,43.866ZM9.241,39.96a2.974,2.974,0,0,1-2.161-.731,2.93,2.93,0,0,1-.751-2.193v-20.1A2.93,2.93,0,0,1,7.08,14.74a2.974,2.974,0,0,1,2.161-.731h30.3a3.016,3.016,0,0,1,2.173.731,2.9,2.9,0,0,1,.763,2.193v20.1a2.9,2.9,0,0,1-.763,2.193,3.016,3.016,0,0,1-2.173.731Z" transform="translate(-2.354 -3.775)"/></svg>