<svg xmlns="http://www.w3.org/2000/svg" width="152.878" height="220.3" viewBox="0 0 152.878 220.3"><defs><style>.a{fill:#3851a3;stroke:#d5d5d5;opacity:0.22;}</style></defs><path class="a" d="M159-189.3H58.5v59.7q6.3-8.4,18.75-14.1a63.023,63.023,0,0,1,26.55-5.7q25.2,0,40.95,10.8t22.5,27.3A91.02,91.02,0,0,1,174-76.5q0,22.2-8.55,39.45A63.58,63.58,0,0,1,139.95-9.9Q123,0,98.4,0,65.7,0,45.9-16.2T22.2-59.1H55.5A37.09,37.09,0,0,0,70.2-36.75Q81.6-28.5,98.7-28.5q21.3,0,31.95-12.9T141.3-75.6q0-21.6-10.8-33.15T98.7-120.3q-14.7,0-24.75,7.35A41.163,41.163,0,0,0,59.4-93H27V-219.3H159Z" transform="translate(-21.622 219.8)"/></svg>