<svg xmlns="http://www.w3.org/2000/svg" xmlns:xlink="http://www.w3.org/1999/xlink" width="445" height="385" viewBox="0 0 445 385"><defs><style>.a{fill:url(#a);}.b{clip-path:url(#c);}.c{opacity:0.2;}.d{fill:#3851a3;stroke:#fff;stroke-linecap:round;stroke-linejoin:round;stroke-width:19.8px;}.e,.f{fill:#fff;}.e,.g{font-size:22px;font-family:SourceSansPro-Semibold, Source Sans Pro;font-weight:600;}.f{stroke:rgba(112,112,112,0.22);}.g{fill:#d81a21;}.h{stroke:none;}.i{fill:none;}</style><linearGradient id="a" x1="1.028" y1="-0.039" x2="0.028" y2="0.963" gradientUnits="objectBoundingBox"><stop offset="0" stop-color="#1880e7"/><stop offset="0.631" stop-color="#3851a3"/><stop offset="1" stop-color="#213c93"/></linearGradient><clipPath id="c"><path class="a" d="M5,0H445a0,0,0,0,1,0,0V385a0,0,0,0,1,0,0H5a5,5,0,0,1-5-5V5A5,5,0,0,1,5,0Z" transform="translate(342 994)"/></clipPath></defs><g transform="translate(-342 -994)"><path class="a" d="M5,0H445a0,0,0,0,1,0,0V385a0,0,0,0,1,0,0H5a5,5,0,0,1-5-5V5A5,5,0,0,1,5,0Z" transform="translate(342 994)"/><g class="b"><g transform="translate(-50)"><g class="c" transform="translate(-657.303 971.308)"><path class="d" d="M0,0H67.291S80.146,25.711,93,25.711,118.71,0,118.71,0h62.279V300.5H118.712S105.857,273.9,93,273.9s-25.71,26.6-25.71,26.6H0Z" transform="matrix(0.966, 0.259, -0.259, 0.966, 1390.662, 186.892)"/><path class="d" d="M144.64,344.18h67.29s12.855,25.71,25.71,25.71,25.71-25.71,25.71-25.71h62.279v300.5H263.351s-12.855-26.6-25.71-26.6-25.71,26.6-25.71,26.6H144.64Z" transform="translate(1100.737 -124.227)"/></g></g></g><g transform="translate(-95 778)"><text class="e" transform="translate(539 383)"><tspan x="0" y="0">Enter Amount(per ticket):</tspan></text><g transform="translate(547 406)"><g class="f"><rect class="h" width="226" height="56" rx="5"/><rect class="i" x="0.5" y="0.5" width="225" height="55" rx="4.5"/></g><text class="g" transform="translate(18 35)"><tspan x="0" y="0">20,000</tspan></text></g></g></g></svg>