<svg xmlns="http://www.w3.org/2000/svg" xmlns:xlink="http://www.w3.org/1999/xlink" width="445" height="385" viewBox="0 0 445 385"><defs><style>.a{fill:url(#a);}.b{opacity:0.1;clip-path:url(#c);}.c,.d{fill:#fff;}.d{font-size:20px;font-family:SourceSansPro-Semibold, Source Sans Pro;font-weight:600;letter-spacing:0.091em;}</style><linearGradient id="a" x1="1.028" y1="-0.039" x2="0.028" y2="0.963" gradientUnits="objectBoundingBox"><stop offset="0" stop-color="#1880e7"/><stop offset="0.631" stop-color="#3851a3"/><stop offset="1" stop-color="#213c93"/></linearGradient><clipPath id="c"><path class="a" d="M5,0H445a0,0,0,0,1,0,0V385a0,0,0,0,1,0,0H5a5,5,0,0,1-5-5V5A5,5,0,0,1,5,0Z" transform="translate(339 994)"/></clipPath></defs><g transform="translate(-339 -994)"><path class="a" d="M5,0H445a0,0,0,0,1,0,0V385a0,0,0,0,1,0,0H5a5,5,0,0,1-5-5V5A5,5,0,0,1,5,0Z" transform="translate(339 994)"/><g class="b"><path class="c" d="M212.071,423.679a201.963,201.963,0,0,0,81.4-16.561A215.614,215.614,0,0,0,406.039,294.547a202.338,202.338,0,0,0,16.453-81.289,202.338,202.338,0,0,0-16.453-81.289A215.711,215.711,0,0,0,293.252,19.291a203.107,203.107,0,0,0-81.4-16.453A202.041,202.041,0,0,0,130.89,19.291,215.711,215.711,0,0,0,18.1,131.969,202.338,202.338,0,0,0,1.65,213.258a201.2,201.2,0,0,0,16.561,81.289A216.32,216.32,0,0,0,130.89,407.118,201.433,201.433,0,0,0,212.071,423.679Zm0-38.75a167.965,167.965,0,0,1-66.676-13.314,171.244,171.244,0,0,1-91.355-91.464,169.7,169.7,0,0,1-13.205-66.893,169.157,169.157,0,0,1,13.205-66.676A171.922,171.922,0,0,1,145.286,54.9a167.187,167.187,0,0,1,66.568-13.314q35.936,0,67,13.314a173,173,0,0,1,91.572,91.68,167.966,167.966,0,0,1,13.314,66.676,164.759,164.759,0,0,1-13.205,66.893,174.528,174.528,0,0,1-36.8,54.662,170.841,170.841,0,0,1-54.553,36.8A169.054,169.054,0,0,1,212.071,384.928Zm-22.3-74.253q11.041,0,17.535-10.175L300.4,155.241q1.732-3.247,3.355-6.711a16.2,16.2,0,0,0,1.624-6.927,14.157,14.157,0,0,0-5.52-11.582,19.059,19.059,0,0,0-12.231-4.438q-9.092,0-15.37,9.958l-83.129,132.92-38.967-50.224a22.8,22.8,0,0,0-7.469-6.386,18.336,18.336,0,0,0-8.118-1.84,16.225,16.225,0,0,0-12.231,5.087,17.055,17.055,0,0,0-4.871,12.231q0,6.711,5.2,13.422L171.589,300.5a27.919,27.919,0,0,0,8.443,7.793A19.875,19.875,0,0,0,189.773,310.675Z" transform="translate(462.862 1099.862)"/></g><path class="c" d="M98.28,196.1a92.746,92.746,0,0,0,37.379-7.605,99.015,99.015,0,0,0,51.7-51.695,92.918,92.918,0,0,0,7.555-37.33,92.918,92.918,0,0,0-7.555-37.33A99.06,99.06,0,0,0,135.56,10.393,93.271,93.271,0,0,0,98.181,2.838,92.782,92.782,0,0,0,61,10.393,99.06,99.06,0,0,0,9.206,62.138,92.918,92.918,0,0,0,1.65,99.468,92.4,92.4,0,0,0,9.256,136.8,99.339,99.339,0,0,0,61,188.493,92.5,92.5,0,0,0,98.28,196.1Zm0-17.8a77.134,77.134,0,0,1-30.619-6.114,78.639,78.639,0,0,1-41.952-42,77.932,77.932,0,0,1-6.064-30.719,77.681,77.681,0,0,1,6.064-30.619,78.95,78.95,0,0,1,41.9-42.1,76.776,76.776,0,0,1,30.57-6.114,77.276,77.276,0,0,1,30.768,6.114A79.443,79.443,0,0,1,171,68.848a77.134,77.134,0,0,1,6.114,30.619,75.661,75.661,0,0,1-6.064,30.719,80.147,80.147,0,0,1-16.9,25.1,78.454,78.454,0,0,1-25.052,16.9A77.634,77.634,0,0,1,98.28,178.3Zm-10.24-34.1a9.146,9.146,0,0,0,8.052-4.672l42.748-66.706q.8-1.491,1.541-3.082a7.439,7.439,0,0,0,.746-3.181,6.5,6.5,0,0,0-2.535-5.319,8.752,8.752,0,0,0-5.617-2.038q-4.175,0-7.058,4.573l-38.175,61.04L69.848,101.754a10.472,10.472,0,0,0-3.43-2.933,8.421,8.421,0,0,0-3.728-.845,7.451,7.451,0,0,0-5.617,2.336,7.832,7.832,0,0,0-2.237,5.617,10.055,10.055,0,0,0,2.386,6.164L79.69,139.531a12.821,12.821,0,0,0,3.877,3.579A9.127,9.127,0,0,0,88.041,144.2Z" transform="translate(462.862 1099.862)"/><text class="d" transform="translate(465 1063)"><tspan x="0" y="0">Voila! You’re done.</tspan></text></g></svg>