<svg xmlns="http://www.w3.org/2000/svg" width="34" height="34" viewBox="0 0 34 34"><defs><style>.a{fill:#fff;}.b{fill:#eba12a;}</style></defs><g transform="translate(0 0.312)"><rect class="a" width="34" height="34" rx="5" transform="translate(0 -0.312)"/><g transform="translate(5.216 4.517)"><path class="b" d="M-113.758,216.965c10.895-1.636,3.915,7.643.539,10.253a16.883,16.883,0,0,1,5.717,7.125c1.885,5.2-2.755,5.965-6.255,4.66a19.465,19.465,0,0,1-9.445-7.6,7.155,7.155,0,0,1-1.947-.29,23.475,23.475,0,0,1,1.45,10.19c0-6.007-2.858-11.972-6.98-16.943-1.45-1.74.041-3.024,1.346-1.346a36.655,36.655,0,0,1,2.423,3.79C-125.481,221.915-118.522,217.648-113.758,216.965Zm-1.553,8.844c2.133-1.3,8.616-8.264,2.568-7.643-3.48.394-7.7,3.6-9.445,5.675C-119.765,223.551-117.3,224.607-115.312,225.809Zm-6.007,5.406a16.44,16.44,0,0,0,7.456,5.054c1.657.435,3.48.249,2.817-2.113a12.95,12.95,0,0,0-4.122-5.53,8.975,8.975,0,0,1-1.553.911A15,15,0,0,1-121.318,231.215Z" transform="translate(131.276 -216.772)"/><path class="a" d="M-92.994,258.239a8.3,8.3,0,0,1,4.805,1.595,11.4,11.4,0,0,1-4.267,1.1C-94.672,260.952-95.128,258.446-92.994,258.239Z" transform="translate(102.02 -249.638)"/></g></g></svg>